<svg width="1279" height="554" viewBox="0 0 1279 554" fill="none" xmlns="http://www.w3.org/2000/svg">
<circle cx="1063.25" cy="74.8753" r="7.24601" transform="rotate(-90 1063.25 74.8753)" fill="#1A35FE"/>
<circle cx="1115.18" cy="74.8755" r="7.24601" transform="rotate(-90 1115.18 74.8755)" fill="#E0E0E0"/>
<circle cx="1167.11" cy="74.8755" r="7.24601" transform="rotate(-90 1167.11 74.8755)" fill="#070D40"/>
<circle cx="1219.04" cy="74.8755" r="7.24601" transform="rotate(-90 1219.04 74.8755)" fill="#E0E0E0"/>
<circle cx="1270.96" cy="74.8755" r="7.24601" transform="rotate(-90 1270.96 74.8755)" fill="#E0E0E0"/>
<circle cx="1063.25" cy="41.0608" r="7.24601" transform="rotate(-90 1063.25 41.0608)" fill="#E0E0E0"/>
<circle cx="1115.18" cy="41.0609" r="7.24601" transform="rotate(-90 1115.18 41.0609)" fill="#7686FE"/>
<circle cx="1167.11" cy="41.0609" r="7.24601" transform="rotate(-90 1167.11 41.0609)" fill="#1A35FE"/>
<circle cx="1219.04" cy="41.0609" r="7.24601" transform="rotate(-90 1219.04 41.0609)" fill="#E0E0E0"/>
<circle cx="1270.96" cy="41.0609" r="7.24601" transform="rotate(-90 1270.96 41.0609)" fill="#485DFE"/>
<circle cx="1063.25" cy="7.24606" r="7.24601" transform="rotate(-90 1063.25 7.24606)" fill="#E0E0E0"/>
<circle cx="1115.18" cy="7.24618" r="7.24601" transform="rotate(-90 1115.18 7.24618)" fill="#E0E0E0"/>
<circle cx="1167.11" cy="7.24618" r="7.24601" transform="rotate(-90 1167.11 7.24618)" fill="#070D40"/>
<circle cx="1219.04" cy="7.24618" r="7.24601" transform="rotate(-90 1219.04 7.24618)" fill="#E0E0E0"/>
<circle cx="7.24601" cy="545.875" r="7.24601" transform="rotate(-90 7.24601 545.875)" fill="white"/>
<circle cx="59.1757" cy="545.875" r="7.24601" transform="rotate(-90 59.1757 545.875)" fill="#E0E0E0"/>
<circle cx="111.105" cy="545.875" r="7.24601" transform="rotate(-90 111.105 545.875)" fill="#070D40"/>
<circle cx="163.035" cy="545.875" r="7.24601" transform="rotate(-90 163.035 545.875)" fill="#E0E0E0"/>
<circle cx="214.965" cy="545.875" r="7.24601" transform="rotate(-90 214.965 545.875)" fill="#E0E0E0"/>
<circle cx="7.24601" cy="512.061" r="7.24601" transform="rotate(-90 7.24601 512.061)" fill="#E0E0E0"/>
<circle cx="59.1757" cy="512.061" r="7.24601" transform="rotate(-90 59.1757 512.061)" fill="white"/>
<circle cx="111.105" cy="512.061" r="7.24601" transform="rotate(-90 111.105 512.061)" fill="#1A35FE"/>
<circle cx="163.035" cy="512.061" r="7.24601" transform="rotate(-90 163.035 512.061)" fill="#E0E0E0"/>
<circle cx="214.965" cy="512.061" r="7.24601" transform="rotate(-90 214.965 512.061)" fill="#485DFE"/>
<circle cx="7.24601" cy="478.246" r="7.24601" transform="rotate(-90 7.24601 478.246)" fill="#E0E0E0"/>
<circle cx="59.1757" cy="478.246" r="7.24601" transform="rotate(-90 59.1757 478.246)" fill="#E0E0E0"/>
<circle cx="111.105" cy="478.246" r="7.24601" transform="rotate(-90 111.105 478.246)" fill="#070D40"/>
<circle cx="163.035" cy="478.246" r="7.24601" transform="rotate(-90 163.035 478.246)" fill="white"/>
</svg>
