<svg width="1292" height="1012" viewBox="0 0 1292 1012" fill="none" xmlns="http://www.w3.org/2000/svg">
<circle cx="12" cy="12" r="12" fill="#F0F0F0"/>
<circle cx="12" cy="98" r="12" fill="#F0F0F0"/>
<circle cx="12" cy="184" r="12" fill="#F0F0F0"/>
<circle cx="12" cy="270" r="12" fill="#7686FE"/>
<circle cx="68" cy="98" r="12" fill="#F0F0F0"/>
<circle cx="68" cy="184" r="12" fill="#F0F0F0"/>
<circle cx="68" cy="270" r="12" fill="#1428BF"/>
<circle cx="68" cy="356" r="12" fill="#1A35FE"/>
<circle cx="68" cy="442" r="12" fill="#1428BF"/>
<circle cx="68" cy="528" r="12" fill="#1428BF"/>
<circle cx="68" cy="614" r="12" fill="#1428BF"/>
<circle cx="68" cy="700" r="12" fill="#1428BF"/>
<circle cx="1127" cy="818" r="12" fill="#F0F0F0"/>
<circle cx="1127" cy="904" r="12" fill="#7686FE"/>
<circle cx="1127" cy="990" r="12" fill="#1A35FE"/>
<circle cx="1183" cy="818" r="12" fill="#F0F0F0"/>
<circle cx="1183" cy="904" r="12" fill="#F0F0F0"/>
<circle cx="1183" cy="990" r="12" fill="#F0F0F0"/>
<circle cx="678" cy="270" r="12" transform="rotate(-90 678 270)" fill="#1A35FE"/>
<circle cx="764" cy="270" r="12" transform="rotate(-90 764 270)" fill="#F0F0F0"/>
<circle cx="850" cy="270" r="12" transform="rotate(-90 850 270)" fill="#070D40"/>
<circle cx="936" cy="270" r="12" transform="rotate(-90 936 270)" fill="#F0F0F0"/>
<circle cx="1022" cy="270" r="12" transform="rotate(-90 1022 270)" fill="#F0F0F0"/>
<circle cx="678" cy="214" r="12" transform="rotate(-90 678 214)" fill="#F0F0F0"/>
<circle cx="764" cy="214" r="12" transform="rotate(-90 764 214)" fill="#7686FE"/>
<circle cx="850" cy="214" r="12" transform="rotate(-90 850 214)" fill="#1A35FE"/>
<circle cx="936" cy="214" r="12" transform="rotate(-90 936 214)" fill="#F0F0F0"/>
<circle cx="1022" cy="214" r="12" transform="rotate(-90 1022 214)" fill="#485DFE"/>
<circle cx="1108" cy="214" r="12" transform="rotate(-90 1108 214)" fill="#485DFE"/>
<circle cx="1194" cy="214" r="12" transform="rotate(-90 1194 214)" fill="#485DFE"/>
<circle cx="1280" cy="214" r="12" transform="rotate(-90 1280 214)" fill="#485DFE"/>
<circle cx="678" cy="158" r="12" transform="rotate(-90 678 158)" fill="#F0F0F0"/>
<circle cx="764" cy="158" r="12" transform="rotate(-90 764 158)" fill="#F0F0F0"/>
<circle cx="850" cy="158" r="12" transform="rotate(-90 850 158)" fill="#070D40"/>
<circle cx="936" cy="158" r="12" transform="rotate(-90 936 158)" fill="#F0F0F0"/>
</svg>
