<svg width="626" height="136" viewBox="0 0 626 136" fill="none" xmlns="http://www.w3.org/2000/svg">
<circle cx="12" cy="124" r="12" transform="rotate(-90 12 124)" fill="#1A35FE"/>
<circle cx="98" cy="124" r="12" transform="rotate(-90 98 124)" fill="#F0F0F0"/>
<circle cx="184" cy="124" r="12" transform="rotate(-90 184 124)" fill="#070D40"/>
<circle cx="270" cy="124" r="12" transform="rotate(-90 270 124)" fill="#F0F0F0"/>
<circle cx="356" cy="124" r="12" transform="rotate(-90 356 124)" fill="#F0F0F0"/>
<circle cx="12" cy="68" r="12" transform="rotate(-90 12 68)" fill="#F0F0F0"/>
<circle cx="98" cy="68" r="12" transform="rotate(-90 98 68)" fill="#7686FE"/>
<circle cx="184" cy="68" r="12" transform="rotate(-90 184 68)" fill="#1A35FE"/>
<circle cx="270" cy="68" r="12" transform="rotate(-90 270 68)" fill="#F0F0F0"/>
<circle cx="356" cy="68" r="12" transform="rotate(-90 356 68)" fill="#485DFE"/>
<circle cx="442" cy="68" r="12" transform="rotate(-90 442 68)" fill="#485DFE"/>
<circle cx="528" cy="68" r="12" transform="rotate(-90 528 68)" fill="#485DFE"/>
<circle cx="614" cy="68" r="12" transform="rotate(-90 614 68)" fill="#485DFE"/>
<circle cx="12" cy="12" r="12" transform="rotate(-90 12 12)" fill="#F0F0F0"/>
<circle cx="98" cy="12" r="12" transform="rotate(-90 98 12)" fill="#F0F0F0"/>
<circle cx="184" cy="12" r="12" transform="rotate(-90 184 12)" fill="#070D40"/>
<circle cx="270" cy="12" r="12" transform="rotate(-90 270 12)" fill="#F0F0F0"/>
</svg>
