<svg width="24" height="24" viewBox="0 0 24 24" fill="none" xmlns="http://www.w3.org/2000/svg">
<path d="M13.3728 6.87739C12.0575 7.63678 10.3756 7.18612 9.61621 5.87082C8.85682 4.55552 9.30747 2.87364 10.6228 2.11425C10.7872 2.01933 10.9573 1.94331 11.1307 1.88553C12.3441 1.48103 13.7149 1.96993 14.3793 3.12082C15.1387 4.43612 14.6881 6.118 13.3728 6.87739Z" fill="black"/>
<path d="M13.3776 21.8857C12.0623 22.6451 10.3804 22.1944 9.62102 20.8791C8.86163 19.5638 9.31228 17.882 10.6276 17.1226C11.9429 16.3632 13.6248 16.8138 14.3842 18.1291C15.1436 19.4444 14.6929 21.1263 13.3776 21.8857Z" fill="black"/>
<path d="M4.72684 9.55971C3.68837 10.1593 3.33256 11.4872 3.93213 12.5257C4.47962 13.4739 5.64757 13.8661 6.65644 13.4405L16.7609 9.1774C18.4668 8.45769 20.4416 9.12086 21.3673 10.7243C22.3811 12.4802 21.7795 14.7255 20.0236 15.7393L17.1408 17.4037C16.782 17.6108 16.3233 17.4879 16.1162 17.1291C15.9091 16.7704 16.032 16.3117 16.3908 16.1046L19.2736 14.4402C20.312 13.8407 20.6678 12.5128 20.0683 11.4743C19.5208 10.526 18.3528 10.1338 17.344 10.5595L7.23953 14.8225C5.53366 15.5422 3.55883 14.8791 2.63309 13.2757C1.61931 11.5197 2.22093 9.27444 3.97684 8.26067L6.85966 6.59627C7.21838 6.38917 7.67707 6.51207 7.88418 6.87079C8.09129 7.22951 7.96838 7.6882 7.60966 7.89531L4.72684 9.55971Z" fill="black"/>
</svg>
