<svg width="261" height="77" viewBox="0 0 261 77" fill="none" xmlns="http://www.w3.org/2000/svg">
<path d="M44.4318 31.1591H35.9318C35.6894 29.7652 35.2424 28.5303 34.5909 27.4545C33.9394 26.3636 33.1288 25.4394 32.1591 24.6818C31.1894 23.9242 30.0833 23.3561 28.8409 22.9773C27.6136 22.5833 26.2879 22.3864 24.8636 22.3864C22.3333 22.3864 20.0909 23.0227 18.1364 24.2955C16.1818 25.553 14.6515 27.4015 13.5455 29.8409C12.4394 32.2652 11.8864 35.2273 11.8864 38.7273C11.8864 42.2879 12.4394 45.2879 13.5455 47.7273C14.6667 50.1515 16.197 51.9848 18.1364 53.2273C20.0909 54.4545 22.3258 55.0682 24.8409 55.0682C26.2348 55.0682 27.5379 54.8864 28.75 54.5227C29.9773 54.1439 31.0758 53.5909 32.0455 52.8636C33.0303 52.1364 33.8561 51.2424 34.5227 50.1818C35.2045 49.1212 35.6742 47.9091 35.9318 46.5455L44.4318 46.5909C44.1136 48.803 43.4242 50.8788 42.3636 52.8182C41.3182 54.7576 39.947 56.4697 38.25 57.9545C36.553 59.4242 34.5682 60.5758 32.2955 61.4091C30.0227 62.2273 27.5 62.6364 24.7273 62.6364C20.6364 62.6364 16.9848 61.6894 13.7727 59.7955C10.5606 57.9015 8.0303 55.1667 6.18182 51.5909C4.33333 48.0152 3.40909 43.7273 3.40909 38.7273C3.40909 33.7121 4.34091 29.4242 6.20455 25.8636C8.06818 22.2879 10.6061 19.553 13.8182 17.6591C17.0303 15.7651 20.6667 14.8182 24.7273 14.8182C27.3182 14.8182 29.7273 15.1818 31.9545 15.9091C34.1818 16.6364 36.1667 17.7045 37.9091 19.1136C39.6515 20.5076 41.0833 22.2197 42.2045 24.25C43.3409 26.2652 44.0833 28.5682 44.4318 31.1591ZM65.097 62.6818C61.688 62.6818 58.7334 61.9318 56.2334 60.4318C53.7334 58.9318 51.794 56.8333 50.4152 54.1364C49.0516 51.4394 48.3698 48.2879 48.3698 44.6818C48.3698 41.0758 49.0516 37.9167 50.4152 35.2045C51.794 32.4924 53.7334 30.3864 56.2334 28.8864C58.7334 27.3864 61.688 26.6364 65.097 26.6364C68.5061 26.6364 71.4607 27.3864 73.9607 28.8864C76.4607 30.3864 78.3925 32.4924 79.7561 35.2045C81.1349 37.9167 81.8243 41.0758 81.8243 44.6818C81.8243 48.2879 81.1349 51.4394 79.7561 54.1364C78.3925 56.8333 76.4607 58.9318 73.9607 60.4318C71.4607 61.9318 68.5061 62.6818 65.097 62.6818ZM65.1425 56.0909C66.991 56.0909 68.5364 55.5833 69.7789 54.5682C71.0213 53.5379 71.9455 52.1591 72.5516 50.4318C73.1728 48.7045 73.4834 46.7803 73.4834 44.6591C73.4834 42.5227 73.1728 40.5909 72.5516 38.8636C71.9455 37.1212 71.0213 35.7348 69.7789 34.7045C68.5364 33.6742 66.991 33.1591 65.1425 33.1591C63.2486 33.1591 61.6728 33.6742 60.4152 34.7045C59.1728 35.7348 58.241 37.1212 57.6198 38.8636C57.0137 40.5909 56.7107 42.5227 56.7107 44.6591C56.7107 46.7803 57.0137 48.7045 57.6198 50.4318C58.241 52.1591 59.1728 53.5379 60.4152 54.5682C61.6728 55.5833 63.2486 56.0909 65.1425 56.0909ZM102.115 62.6818C98.7055 62.6818 95.7509 61.9318 93.2509 60.4318C90.7509 58.9318 88.8115 56.8333 87.4327 54.1364C86.0691 51.4394 85.3873 48.2879 85.3873 44.6818C85.3873 41.0758 86.0691 37.9167 87.4327 35.2045C88.8115 32.4924 90.7509 30.3864 93.2509 28.8864C95.7509 27.3864 98.7055 26.6364 102.115 26.6364C105.524 26.6364 108.478 27.3864 110.978 28.8864C113.478 30.3864 115.41 32.4924 116.774 35.2045C118.152 37.9167 118.842 41.0758 118.842 44.6818C118.842 48.2879 118.152 51.4394 116.774 54.1364C115.41 56.8333 113.478 58.9318 110.978 60.4318C108.478 61.9318 105.524 62.6818 102.115 62.6818ZM102.16 56.0909C104.008 56.0909 105.554 55.5833 106.796 54.5682C108.039 53.5379 108.963 52.1591 109.569 50.4318C110.19 48.7045 110.501 46.7803 110.501 44.6591C110.501 42.5227 110.19 40.5909 109.569 38.8636C108.963 37.1212 108.039 35.7348 106.796 34.7045C105.554 33.6742 104.008 33.1591 102.16 33.1591C100.266 33.1591 98.6903 33.6742 97.4327 34.7045C96.1903 35.7348 95.2585 37.1212 94.6373 38.8636C94.0312 40.5909 93.7282 42.5227 93.7282 44.6591C93.7282 46.7803 94.0312 48.7045 94.6373 50.4318C95.2585 52.1591 96.1903 53.5379 97.4327 54.5682C98.6903 55.5833 100.266 56.0909 102.16 56.0909ZM123.905 75.0909V27.0909H131.996V32.8636H132.473C132.897 32.0152 133.496 31.1136 134.268 30.1591C135.041 29.1894 136.087 28.3636 137.405 27.6818C138.723 26.9848 140.405 26.6364 142.45 26.6364C145.147 26.6364 147.579 27.3258 149.746 28.7045C151.927 30.0682 153.655 32.0909 154.927 34.7727C156.215 37.4394 156.859 40.7121 156.859 44.5909C156.859 48.4242 156.231 51.6818 154.973 54.3636C153.715 57.0455 152.003 59.0909 149.837 60.5C147.67 61.9091 145.215 62.6136 142.473 62.6136C140.473 62.6136 138.814 62.2803 137.496 61.6136C136.177 60.947 135.117 60.1439 134.314 59.2045C133.526 58.25 132.912 57.3485 132.473 56.5H132.132V75.0909H123.905ZM131.973 44.5455C131.973 46.803 132.291 48.7803 132.927 50.4773C133.579 52.1742 134.511 53.5 135.723 54.4545C136.95 55.3939 138.435 55.8636 140.177 55.8636C141.996 55.8636 143.518 55.3788 144.746 54.4091C145.973 53.4242 146.897 52.0833 147.518 50.3864C148.155 48.6742 148.473 46.7273 148.473 44.5455C148.473 42.3788 148.162 40.4545 147.541 38.7727C146.92 37.0909 145.996 35.7727 144.768 34.8182C143.541 33.8636 142.011 33.3864 140.177 33.3864C138.42 33.3864 136.927 33.8485 135.7 34.7727C134.473 35.697 133.541 36.9924 132.905 38.6591C132.284 40.3258 131.973 42.2879 131.973 44.5455ZM170.212 15.4545V62H161.985V15.4545H170.212ZM176.752 62V27.0909H184.98V62H176.752ZM180.889 22.1364C179.586 22.1364 178.464 21.7045 177.525 20.8409C176.586 19.9621 176.116 18.9091 176.116 17.6818C176.116 16.4394 176.586 15.3864 177.525 14.5227C178.464 13.6439 179.586 13.2045 180.889 13.2045C182.207 13.2045 183.328 13.6439 184.252 14.5227C185.192 15.3864 185.661 16.4394 185.661 17.6818C185.661 18.9091 185.192 19.9621 184.252 20.8409C183.328 21.7045 182.207 22.1364 180.889 22.1364ZM199.747 41.5455V62H191.52V27.0909H199.383V33.0227H199.792C200.596 31.0682 201.876 29.5152 203.633 28.3636C205.406 27.2121 207.596 26.6364 210.202 26.6364C212.611 26.6364 214.709 27.1515 216.497 28.1818C218.3 29.2121 219.694 30.7045 220.679 32.6591C221.679 34.6136 222.171 36.9848 222.156 39.7727V62H213.929V41.0455C213.929 38.7121 213.323 36.8864 212.111 35.5682C210.914 34.25 209.255 33.5909 207.133 33.5909C205.694 33.5909 204.414 33.9091 203.292 34.5455C202.186 35.1667 201.315 36.0682 200.679 37.25C200.058 38.4318 199.747 39.8636 199.747 41.5455ZM236.1 51.0455L236.077 41.1136H237.395L249.941 27.0909H259.554L244.122 44.2727H242.418L236.1 51.0455ZM228.6 62V15.4545H236.827V62H228.6ZM250.509 62L239.145 46.1136L244.691 40.3182L260.35 62H250.509Z" fill="#E9EBFF"/>
<ellipse cx="65" cy="44.5" rx="18" ry="18.5" fill="#E9EBFF"/>
<ellipse cx="102" cy="44.5" rx="18" ry="18.5" fill="#E9EBFF"/>
</svg>
